<?xml version="1.0" encoding="UTF-8"?><svg id="Calque_2" xmlns="http://www.w3.org/2000/svg" viewBox="0 0 328.27 558.68"><defs><style>.cls-1{fill:#fdf6ed;}</style></defs><g id="Calque_1-2"><path class="cls-1" d="m0,279.39C97.44,186.19,194.69,93.17,292.1,0c12.04,11.48,24.05,22.92,36.17,34.47-85.39,81.68-170.6,163.19-255.91,244.78.43.47.71.81,1.03,1.12,14.56,13.93,29.14,27.85,43.69,41.8,12.9,12.37,25.74,24.79,38.65,37.15,9.18,8.79,18.46,17.5,27.65,26.28,9.08,8.67,18.11,17.38,27.17,26.07,8.94,8.57,17.88,17.14,26.83,25.7,14.32,13.7,28.66,27.39,42.99,41.08,11.21,10.71,22.41,21.42,33.62,32.12,4.15,3.96,8.3,7.91,12.45,11.88,1.88,1.8,1.85,1.79,0,3.55-8.95,8.56-17.89,17.13-26.84,25.69-2.31,2.21-4.64,4.41-6.97,6.6-.14.14-.33.22-.6.39C194.74,465.63,97.48,372.61,0,279.39Z"/></g></svg>