<?xml version="1.0" encoding="UTF-8"?><svg id="Calque_2" xmlns="http://www.w3.org/2000/svg" viewBox="0 0 447.71 448.52"><defs><style>.cls-1{fill:#fdf6ed;}</style></defs><g id="Calque_1-2"><path class="cls-1" d="m318.72,0c43.55,43.56,86.11,86.12,128.98,129-.97,1.04-2.15,2.37-3.4,3.63-98.32,98.42-196.65,196.83-294.93,295.29-2.7,2.71-5.42,4.32-9.37,4.76-33.38,3.71-66.74,7.64-100.1,11.51-10.4,1.21-20.81,2.44-31.21,3.62-2.61.3-5.25.43-8.69.71.95-8.62,1.82-16.8,2.76-24.98,3.83-33.21,7.68-66.41,11.52-99.61.69-5.95,1.09-11.95,2.17-17.82.41-2.2,2.04-4.44,3.69-6.09,75.92-76.1,151.91-152.14,227.89-228.18,22.46-22.48,44.93-44.96,67.37-67.48,1.28-1.29,2.23-2.9,3.33-4.35Zm-77.91,142.73c-.41.32-.84.58-1.19.92-59.42,59.41-118.84,118.82-178.19,178.3-1.27,1.27-2.19,3.33-2.41,5.13-2.06,16.33-3.93,32.69-5.84,49.04-.82,7.01-1.58,14.03-2.38,21.12,2.41,0,4.07.16,5.68-.02,21.3-2.46,42.61-4.87,63.89-7.58,2.53-.32,5.35-1.8,7.17-3.61,58.33-58.15,116.54-116.42,174.82-174.61,1.27-1.27,3.14-1.93,4.43-2.7-22.77-22.77-44.27-44.27-65.99-65.99Zm33.03-32.5c21.45,21.46,43.06,43.06,64.24,64.24,15.18-15.18,30.67-30.66,45.74-45.73-21.32-21.28-42.9-42.83-64.3-64.2-15,15-30.38,30.39-45.68,45.69Z"/></g></svg>