<?xml version="1.0" encoding="UTF-8"?><svg id="Calque_2" xmlns="http://www.w3.org/2000/svg" viewBox="0 0 17.67 16.41"><defs><style>.cls-1{fill:#fdf6ed;}</style></defs><g id="Calque_1-2"><path class="cls-1" d="m8.83,2.21c.2-.25.38-.49.57-.71.74-.84,1.65-1.36,2.74-1.47,2.25-.23,4.26,1.04,5.11,3.24.57,1.46.52,2.93.09,4.41-.41,1.39-1.13,2.58-2.03,3.67-1.5,1.83-3.31,3.23-5.28,4.44-.32.2-.65.37-.97.56-.15.08-.3.08-.44,0-2.23-1.24-4.29-2.72-5.99-4.69-1.04-1.2-1.89-2.53-2.32-4.11-.43-1.57-.44-3.13.27-4.62C1.32,1.34,2.54.35,4.22.07c1.83-.31,3.31.35,4.44,1.9.06.08.11.16.17.24Z"/></g></svg>