<?xml version="1.0" encoding="UTF-8"?><svg id="Calque_2" xmlns="http://www.w3.org/2000/svg" viewBox="0 0 17.67 16.41"><defs><style>.cls-1{fill:#fdf6ed;}</style></defs><g id="Calque_1-2"><path class="cls-1" d="m8.83,2.21c.2-.25.38-.49.57-.71.74-.84,1.65-1.36,2.74-1.47,2.25-.23,4.26,1.04,5.11,3.24.57,1.46.52,2.93.09,4.41-.41,1.39-1.13,2.58-2.03,3.67-1.5,1.83-3.31,3.23-5.28,4.44-.32.2-.65.37-.97.56-.15.08-.3.08-.44,0-2.23-1.24-4.29-2.72-5.99-4.69-1.04-1.2-1.89-2.53-2.32-4.11-.43-1.57-.44-3.13.27-4.62C1.32,1.34,2.54.35,4.22.07c1.83-.31,3.31.35,4.44,1.9.06.08.11.16.17.24ZM.81,5.39c.02.73.1,1.34.27,1.94.42,1.48,1.23,2.72,2.21,3.83,1.56,1.78,3.43,3.14,5.44,4.29.1.06.16.03.24-.02,1.44-.82,2.8-1.76,4.05-2.88,1.08-.98,2.05-2.06,2.78-3.36.79-1.4,1.23-2.9.99-4.55-.16-1.08-.61-2.01-1.4-2.74-.69-.65-1.51-.97-2.44-1.04-1.14-.08-2.15.22-2.93,1.12-.31.35-.56.76-.82,1.15-.21.31-.53.31-.73,0-.11-.17-.21-.35-.32-.52-.41-.61-.88-1.15-1.55-1.43-1.33-.57-2.63-.46-3.83.34-1.37.91-1.9,2.31-1.96,3.85Z"/></g></svg>