<?xml version="1.0" encoding="UTF-8"?><svg id="Calque_2" xmlns="http://www.w3.org/2000/svg" viewBox="0 0 140.8 140.6"><defs><style>.cls-1{fill:#fbf6ef;}</style></defs><g id="Calque_1-2"><path class="cls-1" d="m89.54,0c.79.48,1.57.96,2.38,1.46-1.08,1.87-2.16,3.74-3.23,5.6-5.46,9.46-10.93,18.92-16.38,28.39-.1.18-.16.5-.07.66,1.56,2.74,3.14,5.46,4.71,8.19.02.04.06.08.14.18,7.45-12.91,14.89-25.8,22.34-38.7.85.49,1.66.96,2.51,1.45-.09.17-.16.32-.24.46-7.56,13.09-15.11,26.19-22.68,39.28-.21.37-.2.62.01.98.67,1.1,1.29,2.24,1.96,3.35.1.16.35.31.53.31,1.34.03,2.69,0,4.03.02.34,0,.5-.13.65-.4,3.72-6.46,7.45-12.92,11.18-19.39,3.61-6.26,7.22-12.52,10.85-18.77.13-.22.42-.38.66-.51,1.05-.52,1.95-.25,2.94.35,2.73,1.67,5.53,3.22,8.29,4.83.2.12.35.37.46.59.52,1.08.24,2-.36,3.03-5.76,9.88-11.46,19.8-17.18,29.71-.09.15-.17.31-.29.53h37.96v2.93h-57.83c.11.22.17.35.24.48,1.48,2.57,2.97,5.14,4.44,7.72.21.37.44.49.86.49,17.19-.01,34.39,0,51.58,0h.72v2.92h-.65c-15.04,0-30.07,0-45.11,0-.45,0-.71.12-.93.53-.6,1.12-1.26,2.22-1.91,3.32-.15.25-.14.43,0,.68.66,1.11,1.32,2.23,1.94,3.36.2.36.43.46.82.46,6.42-.01,12.85,0,19.27,0,8.2,0,16.4,0,24.6,0,.4,0,.65.16.96.39.87.67,1.09,1.5,1.07,2.58-.07,3.2-.03,6.41-.02,9.61,0,.36-.13.6-.35.88-.67.87-1.49,1.09-2.57,1.08-11.47-.04-22.94-.03-34.4-.03h-.72c6.35,11.01,12.67,21.95,19.02,32.96-.83.48-1.66.96-2.52,1.47C96.26,83.57,73.3,43.79,50.31,3.97c-2.5,1.44-4.98,2.87-7.51,4.33,22.98,39.81,45.94,79.59,68.93,119.41-.87.5-1.68.97-2.53,1.46-.77-1.33-1.53-2.64-2.28-3.94-6.88-11.92-13.76-23.83-20.63-35.75-.23-.4-.48-.54-.93-.53-1.26.03-2.52.02-3.78,0-.29,0-.45.09-.59.34-.65,1.16-1.31,2.31-1.99,3.45-.17.29-.18.5,0,.8,5.7,9.86,11.4,19.72,17.09,29.59,1.64,2.84,3.28,5.69,4.93,8.52.18.31.16.59.12.93-.12,1.14-.77,1.76-1.75,2.29-2.82,1.54-5.58,3.2-8.37,4.79-.2.11-.49.12-.73.1-1.17-.09-1.83-.76-2.42-1.78-5.69-9.96-11.44-19.89-17.17-29.82-.08-.14-.17-.28-.3-.47-6.35,10.99-12.67,21.94-19.01,32.92-.85-.49-1.66-.96-2.5-1.45.08-.16.14-.29.21-.42,8.02-13.9,16.04-27.8,24.06-41.69,2.84-4.92,5.68-9.85,8.53-14.77.13-.22.23-.39.06-.67-1.57-2.69-3.12-5.39-4.68-8.09-.04-.07-.09-.13-.19-.26-11.86,20.54-23.68,41.03-35.53,61.56-.85-.49-1.66-.96-2.51-1.45.09-.17.15-.31.23-.45,7.55-13.08,15.1-26.16,22.66-39.23.23-.4.23-.69,0-1.07-.65-1.08-1.28-2.17-1.89-3.27-.16-.29-.34-.38-.67-.38-1.28.02-2.56.02-3.83,0-.38,0-.58.11-.78.44-3.79,6.6-7.6,13.18-11.4,19.77-3.53,6.12-7.06,12.23-10.6,18.34-.13.22-.41.39-.66.51-1.05.51-1.95.26-2.94-.34-2.7-1.66-5.47-3.2-8.21-4.77-.31-.18-.45-.42-.59-.73-.48-1.09-.16-1.96.41-2.94,5.75-9.89,11.46-19.8,17.18-29.71.09-.15.17-.31.3-.54H.06v-2.86h57.87c-.14-.27-.2-.41-.28-.55-1.47-2.56-2.96-5.11-4.42-7.67-.22-.39-.46-.54-.92-.54-17.19.01-34.39.01-51.58.01H.06v-2.92c.23,0,.45,0,.68,0,15,0,30.01,0,45.01.01.52,0,.8-.17,1.04-.61.58-1.08,1.2-2.14,1.84-3.19.17-.28.15-.49-.01-.76-.63-1.05-1.26-2.11-1.83-3.19-.25-.48-.56-.61-1.09-.61-14.5.02-29.01.01-43.51.02-.5,0-.84-.16-1.22-.48-.76-.63-.97-1.36-.95-2.33.06-3.25.03-6.51.02-9.76,0-.36.13-.59.34-.87.68-.91,1.56-1.1,2.66-1.1,11.42.04,22.84.02,34.25.02h.76c-6.36-11.02-12.67-21.96-19.01-32.94.84-.49,1.67-.97,2.52-1.46.83,1.44,1.65,2.84,2.46,4.25,5.73,9.92,11.45,19.84,17.17,29.77.14.24.27.4.6.4,3.1-.02,6.21,0,9.31-.01.08,0,.16-.01.32-.02-7.45-12.91-14.88-25.78-22.35-38.72.83-.48,1.66-.96,2.52-1.46.31.52.6,1.02.89,1.52,7.33,12.71,14.67,25.41,21.99,38.12.23.41.47.59.96.57,1.24-.04,2.49-.03,3.73,0,.35,0,.53-.12.69-.41.62-1.11,1.25-2.22,1.92-3.32.2-.33.2-.56,0-.9-3.38-5.82-6.74-11.65-10.1-17.48-3.96-6.86-7.92-13.73-11.89-20.58-.17-.29-.18-.55-.13-.88.14-1.14.76-1.79,1.76-2.34,2.8-1.52,5.53-3.15,8.28-4.75.31-.18.58-.18.93-.14,1.15.14,1.76.81,2.32,1.79,5.67,9.91,11.4,19.8,17.11,29.69.11.19.22.37.36.61.18-.3.35-.56.5-.83,6.07-10.51,12.13-21.02,18.2-31.53.1-.17.17-.36.26-.54.07,0,.13,0,.2,0Zm-18.47,63.16c-.13-.24-.23-.43-.34-.61-1.45-2.51-2.91-5.02-4.34-7.54-.21-.37-.44-.49-.85-.49-20.66.01-41.32,0-61.97,0h-.61v8.63h68.12ZM110.26,15.39c-6.97,12.08-13.92,24.11-20.88,36.17.14.03.18.04.23.04,3.28,0,6.57,0,9.85-.01.17,0,.41-.19.51-.35,5.87-10.37,11.72-20.74,17.57-31.12.07-.12.12-.26.2-.41-2.5-1.44-4.97-2.87-7.48-4.32ZM30.52,125.18c6.98-12.1,13.93-24.13,20.91-36.23-3.24,0-6.36,0-9.48-.01-.4,0-.61.13-.81.48-5.12,8.89-10.25,17.77-15.38,26.66-.91,1.58-1.82,3.16-2.75,4.77,2.51,1.45,4.98,2.88,7.51,4.33Zm46.57-29.11c-.12.2-.2.32-.28.45-1.5,2.6-2.99,5.2-4.5,7.79-.18.31-.18.54,0,.85,5.64,9.75,11.28,19.51,16.91,29.27.41.71.83,1.43,1.25,2.17,2.52-1.46,5-2.89,7.51-4.34-6.97-12.07-13.91-24.09-20.89-36.2Zm60.74-18.67h-41.74c.12.22.21.39.31.56,1.47,2.56,2.95,5.11,4.42,7.67.18.31.37.43.73.43,11.92-.01,23.83,0,35.75,0h.54v-8.65Zm-74.15,12.79c.09-.12.13-.17.16-.23,1.58-2.74,3.17-5.48,4.74-8.23.09-.15.07-.45-.02-.61-2.83-4.87-5.68-9.74-8.51-14.61-.17-.29-.35-.41-.7-.41-3.02.02-6.04,0-9.06.01-.14,0-.28.02-.48.03,4.64,8.03,9.24,16.01,13.88,24.04Zm6.7-24.08c-.68,0-1.36-.02-2.04.01-.17,0-.42.13-.5.27-.72,1.19-1.41,2.4-2.09,3.62-.08.14-.08.39,0,.53.68,1.22,1.37,2.42,2.09,3.62.08.14.3.27.46.27,1.39.02,2.79.02,4.18,0,.17,0,.41-.15.5-.29.71-1.19,1.41-2.4,2.09-3.62.07-.12.07-.35,0-.48-.68-1.21-1.37-2.42-2.09-3.61-.09-.16-.35-.29-.54-.3-.68-.04-1.36-.01-2.04-.01Z"/></g></svg>