<?xml version="1.0" encoding="UTF-8"?><svg id="Calque_2" xmlns="http://www.w3.org/2000/svg" viewBox="0 0 413.26 143.14"><defs><style>.cls-1{font-family:AdobeHandwriting-Ernie, 'Adobe Handwriting';}.cls-1,.cls-2,.cls-3{fill:#fbf6ef;}.cls-1,.cls-3{font-size:33.13px;}.cls-3{font-family:SpaceGrotesk-Regular, 'Space Grotesk';font-variation-settings:'wght' 400;}.cls-4{letter-spacing:-.03em;}</style></defs><g id="Calque_1-2"><path class="cls-2" d="m91.16,0c.8.49,1.61.97,2.45,1.48-.91,1.57-1.81,3.13-2.71,4.69-5.76,9.97-11.52,19.95-17.28,29.92-.13.22-.24.4-.07.68,1.6,2.74,3.18,5.48,4.77,8.23.04.07.09.13.18.26,7.6-13.16,15.16-26.27,22.75-39.4.87.51,1.72.99,2.59,1.5-.82,1.43-1.63,2.83-2.44,4.23-7,12.12-13.99,24.24-20.99,36.36-.13.22-.17.38-.02.63.71,1.19,1.4,2.39,2.08,3.59.14.25.3.35.59.35,1.35-.02,2.7-.02,4.05,0,.34,0,.51-.12.67-.4,4.98-8.65,9.97-17.3,14.96-25.94,2.49-4.31,4.97-8.62,7.48-12.92.13-.23.43-.38.68-.51,1.07-.54,1.98-.26,2.99.36,2.75,1.68,5.56,3.25,8.36,4.85.31.18.45.42.6.75.46,1.08.21,1.96-.37,2.96-5.88,10.1-11.71,20.23-17.55,30.35-.08.14-.15.29-.26.49h38.69c0,.96,0,1.88-.01,2.8,0,.07-.17.18-.27.21-.16.04-.34.01-.5.01-19.11,0-38.21,0-57.32,0h-.79c.09.18.14.31.21.43,1.51,2.62,3.02,5.22,4.52,7.85.21.37.44.5.87.5,17.54-.01,35.07-.01,52.61-.01.78,0,.7-.07.7.71,0,.74,0,1.48,0,2.3h-.68c-15.32,0-30.65,0-45.97-.01-.47,0-.71.14-.93.55-.61,1.13-1.26,2.23-1.92,3.33-.16.27-.16.47,0,.73.67,1.11,1.32,2.23,1.94,3.38.2.37.42.47.82.47,13.18-.01,26.35,0,39.53,0,1.72,0,3.45,0,5.17,0,.35,0,.58.12.85.33.98.74,1.24,1.67,1.21,2.88-.09,3.21-.04,6.42-.02,9.63,0,.35-.13.58-.33.85-.7.94-1.6,1.16-2.75,1.15-11.64-.04-23.28-.03-34.92-.03h-.73c6.47,11.21,12.9,22.35,19.36,33.54-.88.51-1.72,1-2.59,1.5C97.99,85.09,74.61,44.59,51.21,4.06c-2.55,1.47-5.07,2.92-7.63,4.4,23.39,40.51,46.76,81.01,70.16,121.55-.87.5-1.7.99-2.59,1.5-.43-.74-.85-1.47-1.27-2.2-7.34-12.72-14.69-25.44-22.02-38.17-.25-.43-.51-.61-1.02-.59-1.27.04-2.53.02-3.8,0-.29,0-.46.09-.6.34-.66,1.18-1.33,2.35-2.03,3.5-.18.3-.16.52,0,.81,5.8,10.03,11.59,20.06,17.38,30.1,1.69,2.92,3.38,5.84,5.05,8.77.12.22.13.53.11.8-.1,1.22-.81,1.9-1.88,2.47-2.83,1.53-5.6,3.19-8.38,4.81-.3.18-.57.15-.9.11-1.17-.13-1.8-.8-2.37-1.8-5.79-10.11-11.63-20.2-17.45-30.29-.1-.17-.21-.34-.34-.56-6.47,11.2-12.9,22.34-19.35,33.51-.88-.51-1.72-.99-2.59-1.5.83-1.44,1.63-2.84,2.44-4.24,9.72-16.84,19.44-33.68,29.16-50.52.62-1.08,1.26-2.16,1.86-3.25.08-.14.1-.4.03-.53-1.59-2.78-3.2-5.55-4.8-8.33-.03-.05-.08-.1-.16-.19-12.06,20.89-24.09,41.74-36.16,62.64-.87-.5-1.71-.98-2.58-1.48.08-.16.14-.29.21-.42,7.7-13.33,15.39-26.67,23.1-40,.22-.39.24-.66,0-1.04-.66-1.08-1.29-2.18-1.9-3.29-.19-.35-.42-.45-.8-.45-1.27.03-2.53.02-3.8,0-.38,0-.6.1-.79.45-4.31,7.5-8.64,14.99-12.96,22.48-3.15,5.46-6.31,10.92-9.47,16.38-.11.19-.34.34-.55.44-1.11.54-2.07.31-3.13-.34-2.73-1.68-5.53-3.24-8.31-4.83-.33-.19-.48-.44-.62-.78-.47-1.08-.18-1.95.4-2.94,5.86-10.07,11.67-20.17,17.5-30.26.09-.16.18-.32.31-.55H.06v-2.93h58.93c-.61-1.05-1.14-1.96-1.66-2.87-1.06-1.84-2.13-3.68-3.17-5.53-.21-.37-.43-.51-.86-.51-17.52.01-35.04.01-52.56.01H.06v-3.01h.66c15.31,0,30.61,0,45.92.01.46,0,.72-.13.95-.54.61-1.13,1.27-2.23,1.92-3.33.14-.24.15-.43,0-.68-.68-1.14-1.36-2.29-2-3.46-.19-.36-.41-.45-.79-.45-10.47,0-20.95,0-31.42,0-4.43,0-8.85,0-13.28,0-.39,0-.63-.16-.93-.38-.89-.68-1.12-1.52-1.09-2.62.07-3.28.03-6.56.02-9.83,0-.34.12-.57.33-.85.71-.93,1.6-1.15,2.75-1.14,11.64.05,23.28.03,34.92.03h.69c-6.47-11.21-12.9-22.35-19.35-33.53.87-.5,1.71-.99,2.59-1.5.37.64.73,1.25,1.08,1.85,6.3,10.92,12.61,21.85,18.92,32.77.1.17.33.38.5.39,3.26.02,6.52.02,9.89.02-7.6-13.17-15.16-26.27-22.76-39.43.86-.5,1.69-.98,2.56-1.49.11.16.21.29.29.43,7.67,13.29,15.35,26.58,23,39.88.27.48.56.65,1.1.63,1.25-.04,2.5-.02,3.75,0,.29,0,.45-.08.6-.34.67-1.19,1.35-2.38,2.05-3.54.18-.31.1-.51-.05-.78-2.37-4.1-4.74-8.21-7.11-12.31-5.09-8.82-10.18-17.64-15.29-26.46-.2-.34-.17-.64-.12-1,.15-1.09.73-1.73,1.71-2.27,2.9-1.58,5.74-3.28,8.61-4.92.19-.11.46-.12.69-.11,1.33.06,1.99.9,2.61,1.99,5.8,10.13,11.65,20.22,17.48,30.33.05.09.1.17.18.31.09-.14.18-.25.25-.36,6.32-10.94,12.63-21.88,18.95-32.82.05-.08.07-.18.11-.27.07,0,.14,0,.2,0Zm-18.83,64.27c-.11-.21-.19-.37-.28-.52-1.48-2.57-2.98-5.13-4.44-7.71-.21-.37-.43-.51-.86-.51-21.03.01-42.06.01-63.08.01h-.62v8.74h69.28ZM112.25,15.68c-7.09,12.28-14.15,24.52-21.26,36.84h.64c3.12,0,6.25,0,9.37.01.43,0,.65-.13.86-.5,5.56-9.88,11.14-19.76,16.72-29.64.43-.76.85-1.52,1.3-2.31-2.55-1.47-5.06-2.92-7.62-4.4Zm-14.43,63.1c.12.22.21.38.3.53,1.51,2.61,3.02,5.22,4.51,7.85.2.35.42.44.8.44,12.11,0,24.21,0,36.32,0,.18,0,.36,0,.54,0v-8.81h-42.46Zm-45.51,11.82c-.15-.02-.2-.04-.25-.04-3.18,0-6.35,0-9.53-.01-.34,0-.47.17-.61.42-5.7,9.89-11.41,19.77-17.11,29.65-.45.79-.91,1.57-1.37,2.38,2.56,1.48,5.08,2.93,7.62,4.4,7.09-12.29,14.15-24.52,21.25-36.81Zm47.42,44.04c-7.1-12.29-14.16-24.53-21.26-36.83-1.65,2.86-3.24,5.62-4.85,8.37-.19.32-.19.54,0,.86,5.48,9.47,10.95,18.95,16.42,28.43.68,1.18,1.37,2.36,2.07,3.57,2.54-1.47,5.05-2.91,7.62-4.4Zm-34.89-42.84c.12-.2.2-.34.29-.48,1.54-2.67,3.08-5.34,4.64-8.01.18-.3.17-.52,0-.81-2.88-4.91-5.76-9.83-8.62-14.75-.2-.34-.42-.44-.8-.44-3.02.02-6.04,0-9.07,0h-.57c4.74,8.2,9.42,16.32,14.14,24.49Zm6.82-16.04c.69,0,1.39.02,2.08-.01.19,0,.45-.14.55-.3.72-1.2,1.42-2.41,2.1-3.63.08-.14.07-.39,0-.53-.69-1.24-1.4-2.46-2.12-3.68-.08-.14-.3-.28-.45-.28-1.42-.02-2.84-.02-4.25,0-.16,0-.39.13-.47.26-.72,1.22-1.43,2.44-2.12,3.68-.08.15-.08.43,0,.58.68,1.22,1.38,2.43,2.1,3.63.08.14.31.26.47.27.71.03,1.42.01,2.13.01Z"/><text class="cls-1" transform="translate(162.66 80.42)"><tspan x="0" y="0">My</tspan></text><text class="cls-3" transform="translate(223.79 83.51)"><tspan x="0" y="0">BE CENTRA</tspan><tspan class="cls-4" x="172.25" y="0">L</tspan></text></g></svg>