<?xml version="1.0" encoding="UTF-8"?><svg id="Calque_2" xmlns="http://www.w3.org/2000/svg" viewBox="0 0 369.47 369.3"><g id="Calque_1-2"><path d="m0,177.52c.21-8.94.87-18.37,2.44-27.74,3.24-19.34,9.12-37.81,18.2-55.18,10.86-20.76,24.8-39.22,42.38-54.8,17.19-15.24,36.48-27.09,57.96-35.32,3.64-1.39,7.27-2.82,11-3.92,7.16-2.11,13.84,1.87,15.26,8.95.52,2.56.11,5.03-.98,7.41-2,4.37-4.07,8.72-5.92,13.16-3.92,9.42-6.67,19.21-8.3,29.27-1.2,7.41-2.09,14.87-2.15,22.42-.06,7.11-.02,14.21.73,21.28,1.22,11.6,3.7,22.92,7.61,33.92,9.11,25.62,23.84,47.42,44.37,65.29,9.79,8.53,20.49,15.67,32.11,21.47,13.42,6.7,27.52,11.27,42.29,13.86,10.23,1.79,20.53,2.27,30.9,2.02,13.4-.32,26.52-2.42,39.35-6.25,8.59-2.57,16.97-5.71,24.94-9.88,3.56-1.86,7.25-1.99,10.89-.17,4.81,2.4,7.43,8.16,6.02,13.34-2.49,9.16-6.12,17.88-10.23,26.41-7.37,15.27-16.59,29.34-27.84,42.03-11.55,13.02-24.59,24.36-39.21,33.88-18.19,11.84-37.82,20.3-58.89,25.41-9.77,2.37-19.68,4.17-29.73,4.6-8.74.37-17.52.43-26.27.21-14.15-.35-27.89-3.37-41.43-7.3-16.19-4.69-31.4-11.62-45.78-20.4-10.14-6.19-19.59-13.3-28.33-21.31-14.47-13.26-26.45-28.53-36.41-45.44-6.79-11.53-12.15-23.69-16.13-36.44-3.15-10.1-5.53-20.41-7-30.92C.46,197.65-.04,187.87,0,177.52ZM114.14,33.23C51.34,64.18,7.99,139.44,28.56,221.72c18.63,74.52,89.84,131.6,176,123.54,38.36-3.59,71.43-19.07,99.24-45.72,12.09-11.59,31.81-38.6,32.39-44.26-42.75,12.87-84.65,10.7-125.39-7.6-40.79-18.32-70.6-48.18-88.94-88.81-18.33-40.6-20.62-82.64-7.73-125.64Z"/></g></svg>