<?xml version="1.0" encoding="UTF-8"?><svg id="Calque_2" xmlns="http://www.w3.org/2000/svg" viewBox="0 0 425.63 425.7"><defs><style>.cls-1{fill:#fbf6ef;}</style></defs><g id="Calque_1-2"><path class="cls-1" d="m181.57,0c10.65,1.62,21.44,2.59,31.92,4.95,71.06,16.02,124.8,75.31,133.83,147.6,5.94,47.61-6,90.53-34.7,128.88-.79,1.06-1.61,2.1-2.77,3.62,1.35,1.41,2.64,2.83,4,4.19,35.14,35.14,70.27,70.31,105.47,105.39,4.39,4.37,6.98,9.31,6.18,15.56-.9,7.05-4.81,12.05-11.47,14.4-7.08,2.49-13.34.7-18.68-4.65-35.24-35.28-70.52-70.53-105.76-105.81-1.39-1.39-2.49-3.09-3.77-4.71-2.18,1.6-3.51,2.54-4.81,3.53C177.54,391.83,27.18,334.04,3.27,206.17c-1.52-8.12-2.2-16.39-3.27-24.59,0-4.99,0-9.98,0-14.96.62-4.91,1.26-9.82,1.85-14.74C10.38,80.77,64.37,20.76,134.27,5.09c10.63-2.38,21.55-3.43,32.34-5.09,4.99,0,9.98,0,14.96,0Zm-6.9,314.59c76.98-.14,139.63-63.14,139.54-140.32-.09-76.88-62.89-139.44-139.89-139.36-77.25.08-139.6,62.77-139.45,140.21.15,76.85,63.05,139.61,139.8,139.47Z"/></g></svg>