<?xml version="1.0" encoding="UTF-8"?><svg id="Calque_2" xmlns="http://www.w3.org/2000/svg" viewBox="0 0 492.54 492.44"><g id="Calque_1-2"><path d="m246.59,112.18c74.13.07,134.1,60.22,133.95,134.35-.15,74.14-60.41,134.15-134.43,133.89-73.98-.26-133.69-60.16-133.69-134.12,0-74.18,60.03-134.19,134.17-134.12Zm.28,22.29c-61.9-.1-112,49.54-112.17,111.17-.18,62.18,49.49,112.34,111.39,112.48,62.03.14,112.15-49.75,112.19-111.69.05-61.82-49.75-111.86-111.4-111.96Z"/><path d="m365.9,139.63c-6.34-.1-9.89-2.25-11.78-6.63-2.06-4.76-1.06-9.07,2.62-12.76,13.63-13.65,27.24-27.31,40.86-40.96,2.35-2.35,4.62-4.79,7.07-7.04,4.88-4.5,11.21-4.52,15.67-.18,4.42,4.3,4.78,11.06.24,15.67-16.22,16.46-32.57,32.79-49.03,49.01-1.74,1.72-4.55,2.36-5.65,2.9Z"/><path d="m139.84,126.66c-.07,6.45-2.2,10-6.57,11.92-4.75,2.09-9.08,1.13-12.76-2.56-11.15-11.17-22.3-22.35-33.45-33.52-4.7-4.7-9.46-9.34-14.08-14.12-4.82-4.99-4.98-11.49-.59-16.05,4.58-4.75,11.25-4.74,16.38.37,15.91,15.82,31.76,31.69,47.47,47.7,1.95,1.99,2.88,4.97,3.6,6.25Z"/><path d="m447.93,235.19c10.79,0,21.57-.05,32.36.02,7.29.04,12.13,4.42,12.24,10.9.12,6.64-4.84,11.26-12.38,11.27-21.74.05-43.48.04-65.22,0-7.54-.01-12.59-4.59-12.53-11.17.06-6.59,5.06-10.99,12.67-11.02,10.95-.04,21.91-.01,32.86,0Z"/><path d="m45.33,235.19c10.81,0,21.63-.04,32.44.01,7.42.04,12.14,4.29,12.24,10.86.11,6.81-4.66,11.3-12.3,11.31-21.79.05-43.58.05-65.37,0-7.3-.02-12.2-4.43-12.33-10.87-.13-6.63,4.88-11.27,12.39-11.3,10.98-.05,21.96-.01,32.94-.01Z"/><path d="m257.58,447.72c0,10.81.05,21.62-.02,32.43-.04,7.34-4.4,12.17-10.89,12.29-6.66.13-11.26-4.83-11.27-12.4-.04-21.62-.04-43.23,0-64.85.01-7.7,4.38-12.51,11.13-12.48,6.73.03,11.01,4.84,11.04,12.58.05,10.81.01,21.62.01,32.43Z"/><path d="m257.58,45.6c0,10.64.05,21.29-.02,31.93-.04,7.41-4.31,12.12-10.87,12.23-6.82.11-11.28-4.65-11.29-12.29-.04-21.79-.05-43.57,0-65.36C235.42,4.92,240.05-.01,246.5,0c6.43.01,11.01,4.95,11.06,12.17.07,11.14.02,22.29.02,33.43Z"/><path d="m79.66,425.13c-3.41-2.85-7.14-4.87-9.24-7.99-2.74-4.08-1.62-8.75,1.82-12.32,5.99-6.22,12.17-12.24,18.28-18.35,9.5-9.51,18.98-19.05,28.52-28.53,5.55-5.51,11.9-5.95,16.74-1.3,4.9,4.71,4.55,11.52-1.03,17.11-15.11,15.17-30.2,30.37-45.49,45.37-2.34,2.3-5.66,3.59-9.59,6.01Z"/><path d="m366.34,353.39c1.49.82,4.66,1.8,6.76,3.86,15.78,15.5,31.4,31.16,46.97,46.88,4.93,4.98,5.01,11.46.58,16.05-4.54,4.7-11.3,4.66-16.4-.4-15.7-15.59-31.3-31.27-46.93-46.92-3.55-3.55-4.45-7.79-2.67-12.37,1.73-4.46,5.36-6.6,11.69-7.1Z"/></g></svg>