<?xml version="1.0" encoding="UTF-8"?>
<svg width="508px" height="509px" viewBox="0 0 508 509" version="1.1" xmlns="http://www.w3.org/2000/svg" xmlns:xlink="http://www.w3.org/1999/xlink">
    <!-- Generator: Sketch 58 (84663) - https://sketch.com -->
    <title>Group 3</title>
    <desc>Created with Sketch.</desc>
    <defs>
        <polygon id="path-1" points="0 0 508 0 508 509 0 509"></polygon>
    </defs>
    <g id="Page-1" stroke="none" stroke-width="1" fill="none" fill-rule="evenodd">
        <g id="Group-3">
            <mask id="mask-2" fill="white">
                <use xlink:href="#path-1"></use>
            </mask>
            <g id="Clip-2"></g>
            <path d="M269.122582,255.180571 C268.50004,251.740216 269.024589,247.308669 267.110849,245.625949 C263.306426,242.26051 258.193512,238.532018 253.559033,238.468627 C249.207003,238.399475 244.422653,242.410341 240.572116,245.533746 C239.061875,246.766972 239.165632,250.483938 239.240568,253.048357 C239.338561,256.678883 238.808247,261.542635 240.848801,263.646035 C244.192082,267.092153 249.385696,270.618949 253.806897,270.630501 C258.216569,270.642 263.116205,266.930796 266.862985,263.744001 C268.719082,262.165011 268.442397,258.096517 269.122582,255.180571 L269.122582,255.180571 Z M239.165632,328.448036 C268.25794,311.661177 296.358792,295.444829 325.272407,278.767462 C314.954351,272.791502 305.558579,267.224696 295.984114,261.980603 C294.77938,261.317888 292.352619,261.899925 290.957664,262.712471 C274.708166,272.053871 258.52784,281.504763 242.41092,291.082435 C241.015965,291.91227 239.338561,293.756346 239.309739,295.162455 C239.050347,305.835048 239.165632,316.524929 239.165632,328.448036 L239.165632,328.448036 Z M280.10353,11.4339947 L280.10353,161.167245 C288.974753,156.078746 297.004391,151.157367 305.351065,146.823787 C309.507109,144.656997 310.69455,141.971561 310.677443,137.407472 C310.487036,97.5581307 310.567736,57.7087898 310.550443,17.8709743 C310.550443,15.8252019 310.354458,13.7794296 310.233408,11.4397575 C300.019108,11.4339947 290.219837,11.4339947 280.10353,11.4339947 L280.10353,11.4339947 Z M451.752181,398.632435 C408.231887,373.518418 365.2592,348.727115 321.54292,323.503606 C321.54292,335.023321 321.358463,345.136928 321.70432,355.23901 C321.767727,357.221392 323.422074,359.860727 325.145593,360.955647 C332.051198,365.369905 339.262309,369.311619 346.363898,373.408926 C376.240148,390.656805 406.122162,407.893157 436.315447,425.308155 C441.399539,416.531503 446.333761,407.996887 451.752181,398.632435 L451.752181,398.632435 Z M477.553087,155.2662 C433.882922,180.483946 391.008227,205.252199 347.436054,230.412318 C356.872176,235.846581 365.409071,240.416433 373.559759,245.608661 C377.185489,247.91952 379.698714,247.49884 383.168809,245.481881 C416.607382,226.009585 450.161241,206.710172 483.67475,187.347369 C486.724052,185.583971 489.721476,183.739894 492.949472,181.803614 C487.698215,172.756113 482.763994,164.25031 477.553087,155.2662 L477.553087,155.2662 Z M55.9538404,110.524294 C99.4856631,135.644073 142.389179,160.389275 186.249566,185.6877 C186.249566,174.150696 185.978645,164.048615 186.37638,153.975347 C186.543544,149.659055 184.802732,147.676673 181.326873,145.751918 C163.457613,135.857295 145.720932,125.732162 127.932372,115.704996 C109.250349,105.164946 90.5567974,94.6537102 71.3502252,83.8312862 C66.2142541,92.7231926 61.3030898,101.240521 55.9538404,110.524294 L55.9538404,110.524294 Z M227.838827,252.558525 C218.817733,257.727702 210.776566,262.637555 202.435657,266.994186 C198.325727,269.143688 196.999943,271.771497 197.011397,276.381688 C197.161343,348.029823 197.115229,419.677959 197.126757,491.331857 C197.126757,493.383392 197.299686,495.44069 197.397678,497.659344 L227.838827,497.659344 L227.838827,252.558525 Z M0,184.650407 C1.61399766,182.201243 3.21646677,179.752079 5.13597113,176.83037 C6.78455446,177.67173 8.44466634,178.420886 10.0010212,179.319873 C48.1490088,201.29896 86.3200536,223.237708 124.364284,245.39544 C128.134122,247.591043 130.889446,247.637145 134.532469,245.372389 C142.573636,240.376094 150.885724,235.800479 160.218089,230.400793 C113.3891,203.344733 67.2460598,176.686301 20.6476415,149.757022 C22.590203,146.339717 24.2272578,143.469873 26.0833551,140.219688 C44.1947146,150.661772 62.0639744,160.942498 79.9159414,171.257801 C108.737328,187.900592 137.547187,204.572196 166.368573,221.209224 C173.556627,225.364159 185.650081,218.131921 186.393673,209.943069 C187.148793,201.627436 184.393469,196.994194 176.813444,192.729767 C134.595876,168.969994 92.7818085,144.489878 50.8351621,120.25756 C43.1398518,115.808725 42.229096,112.293455 46.7367609,104.427316 C51.8669677,95.4720192 57.0029389,86.5167226 62.1907885,77.6017652 C65.6897049,71.5854656 70.2261912,70.4329177 76.353618,73.9712395 C110.662597,93.7431974 144.960047,113.538206 179.27479,133.32169 C181.223116,134.445424 183.234849,135.476954 186.17463,137.061707 L186.17463,0.334959211 L196.832779,0.334959211 L196.832779,209.25154 C207.496692,203.096935 217.140328,197.795215 226.409286,191.905695 C227.827299,191.000945 227.959877,187.393471 227.965641,185.042273 C228.046341,126.187419 228.029048,67.3325641 228.029048,8.47770957 L228.029048,0.484790428 L239.148339,0.484790428 L239.148339,7.72279075 C239.148339,59.1898137 239.142575,110.662599 239.154104,162.135385 C239.154104,170.658476 251.114979,177.141558 258.879461,173.660863 C266.690057,170.157118 268.845896,165.13201 268.765196,156.678071 C268.304054,108.374792 268.534625,60.0715128 268.54039,11.7624709 C268.54039,3.08378577 271.555107,0.0180085597 280.068944,0.0064830815 C289.989266,-0.00216102717 299.903823,-0.00216102717 309.824144,0.0064830815 C318.63196,0.0122458206 321.548684,2.8532762 321.548684,11.4685712 C321.554449,50.7070618 321.548684,89.9397896 321.548684,129.17828 L321.548684,137.286454 C361.506655,114.247023 400.623041,91.697425 440.327384,68.8020626 C442.15466,71.9254672 443.814772,74.7722603 445.878383,78.3048194 C302.226827,161.224872 158.719377,244.058484 14.7162001,327.185996 C19.7772356,335.985699 24.6826357,344.497264 30.0837636,353.890529 C173.810255,270.930137 317.277355,188.136864 461.228653,105.061217 C463.073222,108.190384 464.744863,111.014127 466.687424,114.316176 C464.72757,115.555165 463.055929,116.678899 461.309353,117.687378 C416.440218,143.619704 371.571083,169.534742 326.707713,195.455543 C319.035459,199.881326 319.444723,213.625459 326.725005,218.690907 C333.434624,223.364488 338.582124,223.15703 345.798999,218.88684 C387.67071,194.118587 429.934392,170.001524 472.071259,145.67124 C479.132499,141.596983 483.011858,142.5997 487.023795,149.509224 C492.309637,158.620114 497.578187,167.736768 502.81215,176.876472 C506.581988,183.463283 505.457954,187.526014 498.852092,191.340947 C464.917791,210.928497 430.989254,230.516047 397.054954,250.10936 C394.73195,251.457841 392.432003,252.846661 389.411522,254.627348 C429.346435,277.701355 468.485879,300.308581 508,323.140553 C506.161196,326.390738 504.535669,329.260582 502.593108,332.689412 C486.804752,323.590047 471.362253,314.721191 455.937047,305.817759 C404.317943,276.018635 352.670018,246.248325 301.120085,216.310896 C297.17732,214.017325 294.283652,213.763765 290.329358,216.287845 C282.363127,221.387869 274.004925,225.87128 264.908895,231.132661 C339.198902,274.03049 412.826016,316.530691 487.01803,359.365131 C485.231104,362.534638 483.6344,365.364143 481.778302,368.671955 C479.472591,367.490593 477.432037,366.55703 475.501004,365.439058 C431.162183,339.852497 386.840654,314.248647 342.501833,288.667848 C333.561438,283.504434 322.130876,290.373619 321.346935,300.504514 C320.74745,308.313025 323.629588,312.27779 330.333443,316.075435 C372.856517,340.163684 415.091377,364.753292 457.418466,389.181543 C464.272192,393.134782 465.309762,397.203276 461.309353,404.147377 C456.046568,413.269793 450.80684,422.403734 445.520998,431.508862 C441.820332,437.876689 437.866037,438.960084 431.531096,435.31227 C396.674511,415.217599 361.840983,395.099876 326.995926,374.999442 C325.566386,374.175371 324.073438,373.449266 321.710084,372.198751 L321.710084,508.620074 L310.965471,508.620074 L310.965471,299.853324 C300.04793,306.163524 290.415822,311.511346 281.106514,317.377814 C279.815316,318.19036 279.717323,321.498172 279.711559,323.6592 C279.642388,382.721513 279.653916,441.789589 279.653916,500.851902 L279.653916,508.620074 L268.534625,508.620074 L268.534625,500.840376 L268.534625,347.689822 C268.534625,338.313845 256.798557,331.86534 248.348126,335.720613 C240.958322,339.091815 238.860125,343.678955 238.929297,351.712214 C239.355853,400.222951 239.142575,448.745215 239.142575,497.261715 C239.142575,505.986502 236.202794,508.965838 227.562142,508.977364 C217.221028,508.998675 206.885679,509.017703 196.544565,508.971601 C189.12594,508.942787 186.261095,506.078706 186.25533,498.7024 C186.232273,459.04323 186.243802,419.384059 186.243802,379.724888 L186.243802,371.795359 C146.141724,394.926994 107.002281,417.499643 67.3325239,440.38348 C65.5340694,437.283127 63.8681932,434.424808 61.8334033,430.9153 C71.4309251,425.348494 80.8036401,419.873892 90.2051765,414.451154 C120.675147,396.863275 151.12206,379.252344 181.661201,361.785482 C184.941075,359.912591 186.485901,357.924446 186.353323,353.936631 C186.030523,344.255229 186.249566,334.550777 186.249566,323.474792 C139.253413,350.571191 93.0757866,377.200809 46.4312542,404.101275 C44.557864,400.868378 42.9208093,398.044636 40.9494264,394.638857 C54.0689217,387.014753 66.7388033,379.609634 79.4432707,372.27943 C113.377572,352.697642 147.340694,333.156194 181.274995,313.580169 C188.716677,309.286928 188.353527,295.675339 181.372987,290.719383 C174.501969,285.849868 169.129662,286.016988 161.670687,290.425483 C120.340819,314.882548 78.6074504,338.665372 37.0066607,362.655655 C28.0777951,367.813307 24.9132068,366.948896 19.8694641,358.201058 C14.9237141,349.626102 9.95490701,341.062672 5.00915703,332.487716 C1.00874854,325.560904 2.08090413,321.734445 9.16520101,317.648663 C42.3674386,298.493318 75.5812048,279.337973 108.783442,260.176866 C111.688638,258.499909 114.54772,256.742273 117.879472,254.742603 C116.202067,253.590055 114.910869,252.57005 113.504386,251.751741 C77.2124953,230.775371 40.9090765,209.804763 4.57683623,188.880257 C3.18764538,188.084999 1.53906206,187.744998 0.0115285547,187.186012 C0,186.333127 0,185.486004 0,184.650407 L0,184.650407 Z" id="Fill-1" fill="#1B1549" mask="url(#mask-2)"></path>
        </g>
    </g>
</svg>